<svg width="21" height="21" viewBox="0 0 21 21" fill="none" xmlns="http://www.w3.org/2000/svg">
<path d="M14 3C14.1429 3.72115 14.3809 4.5024 14.7143 5.34375C15.0714 6.20913 15.5357 7.02644 16.1071 7.79567C16.7024 8.56491 17.4167 9.16587 18.25 9.59856V9.74279L1 9.52644V11.4736L18.25 11.2572V11.4014C17.369 11.9543 16.6429 12.6034 16.0714 13.3486C15.5 14.0937 15.0476 14.875 14.7143 15.6923C14.4048 16.5096 14.1667 17.2788 14 18H16.1071C16.2262 17.1346 16.4405 16.2933 16.75 15.476C17.0833 14.6827 17.5119 13.9255 18.0357 13.2043C18.5833 12.4832 19.2381 11.8101 20 11.1851V9.8149C18.9048 8.8774 18.0238 7.87981 17.3571 6.82211C16.7143 5.76442 16.2976 4.49038 16.1071 3H14Z" fill="white"/>
</svg>
